<mxfile host="app.diagrams.net" modified="2023-04-17T06:49:49.174Z" agent="Mozilla/5.0 (Windows NT 10.0; Win64; x64) AppleWebKit/537.36 (KHTML, like Gecko) Chrome/112.0.0.0 Safari/537.36" version="21.1.8" etag="G_btfj668yPo-7NVDJ-n" type="github">
  <diagram name="Страница 1" id="C52UvcBa2cbqtfuD3gUC">
    <mxGraphModel>
      <root>
        <mxCell id="0" />
        <mxCell id="1" parent="0" />
      </root>
    </mxGraphModel>
  </diagram>
</mxfile>
